{"title":"The.Big.Adventure.S01E09.PDTV.x264-NoGRP","uid":11557932,"size":1118676464,"categoryP":"video","categoryS":"tv_shows","magnet":"?xt=urn:btih:e82c2ef6993b7c4e6419f55c5b37a50fe620c30a&amp;dn=The.Big.Adventure.S01E09.PDTV.x264-NoGRP&amp;tr=udp%3A%2F%2Ftracker.openbittorrent.com%3A80&amp;tr=udp%3A%2F%2Fopen.demonii.com%3A1337&amp;tr=udp%3A%2F%2Ftracker.coppersurfer.tk%3A6969&amp;tr=udp%3A%2F%2Fexodus.desync.com%3A6969","seeders":0,"leechers":1,"uploader":"whowhatwhen2","files":1,"time":1416847512,"description":"Season finale of The Big Adventure.\n\nAir Date: 24-11-2014\n\nFormat                      : MPEG-4\nCodec ID                    : mp42\nFile size                   : 1.04 GiB\nDuration                    : 1h 50mn\nOverall bit rate mode       : Variable\nOverall bit rate            : 1 350 Kbps\n\n\nVideo\nFormat                      : AVC\nFormat/Info                 : Advanced Video Codec\nFormat profile              : &lt;a class=&quot;__cf_email__&quot; href=&quot;/cdn-cgi/l/email-protection&quot; data-cfemail=&quot;e8a0818f80a8a4dbc6d9&quot;&gt;[email&amp;#160;protected]&lt;/a&gt;&lt;script cf-hash='f9e31' type=&quot;text/javascript&quot;&gt;\n/* &lt;![CDATA[ */!function(){try{var t=&quot;currentScript&quot;in document?document.currentScript:function(){for(var t=document.getElementsByTagName(&quot;script&quot;),e=t.length;e--;)if(t[e].getAttribute(&quot;cf-hash&quot;))return t[e]}();if(t&amp;&amp;t.previousSibling){var e,r,n,i,c=t.previousSibling,a=c.getAttribute(&quot;data-cfemail&quot;);if(a){for(e=&quot;&quot;,r=parseInt(a.substr(0,2),16),n=2;a.length-n;n+=2)i=parseInt(a.substr(n,2),16)^r,e+=String.fromCharCode(i);e=document.createTextNode(e),c.parentNode.replaceChild(e,c)}}}catch(u){}}();/* ]]&gt; */&lt;/script&gt;\nFormat settings, CABAC      : Yes\nFormat settings, ReFrames   : 4 frames\nCodec ID/Info               : Advanced Video Coding\nDuration                    : 1h 50mn\nBit rate                    : 1 186 Kbps\nWidth                       : 720 pixels\nHeight                      : 400 pixels\nDisplay aspect ratio        : 16:9\nFrame rate mode             : Variable\nFrame rate                  : 25.000 fps\nMinimum frame rate          : 21.855 fps\nMaximum frame rate          : 29.202 fps\nStream size                 : 937 MiB (88%)\n\n\nAudio\nFormat                      : AAC\nFormat profile              : LC\nCodec ID                    : 40\nDuration                    : 1h 50mn\nBit rate mode               : Variable\nBit rate                    : 160 Kbps\nMaximum bit rate            : 253 Kbps\nChannel(s)                  : 2 channels\nChannel positions           : Front: L R\nSampling rate               : 48.0 KHz\nCompression mode            : Lossy\nStream size                 : 126 MiB (12%)\nTitle                       : Stereo\nLanguage                    : English","torrent":{"xt":"urn:btih:e82c2ef6993b7c4e6419f55c5b37a50fe620c30a","amp;dn":"The.Big.Adventure.S01E09.PDTV.x264-NoGRP","amp;tr":["udp%3A%2F%2Ftracker.openbittorrent.com%3A80","udp%3A%2F%2Fopen.demonii.com%3A1337","udp%3A%2F%2Ftracker.coppersurfer.tk%3A6969","udp%3A%2F%2Fexodus.desync.com%3A6969"],"infoHash":"e82c2ef6993b7c4e6419f55c5b37a50fe620c30a","infoHashBuffer":{"type":"Buffer","data":[232,44,46,246,153,59,124,78,100,25,245,92,91,55,165,15,230,32,195,10]},"announce":[],"urlList":[]}}